<?xml version="1.0" standalone="no"?>
<!DOCTYPE svg PUBLIC "-//W3C//DTD SVG 20010904//EN"
 "http://www.w3.org/TR/2001/REC-SVG-20010904/DTD/svg10.dtd">
<svg version="1.0" xmlns="http://www.w3.org/2000/svg"
 width="300.000000pt" height="300.000000pt" viewBox="0 0 300.000000 300.000000"
 preserveAspectRatio="xMidYMid meet">
<metadata>
Created by potrace 1.11, written by Peter Selinger 2001-2013
</metadata>
<g transform="translate(0.000000,300.000000) scale(0.100000,-0.100000)"
fill="#000000" stroke="none">
<path d="M372 2778 c-7 -7 -12 -19 -12 -27 0 -12 100 -291 145 -403 5 -14 -22
-7 -142 33 -81 28 -156 52 -166 54 -25 6 -58 -30 -50 -52 4 -10 109 -160 233
-333 125 -173 279 -389 344 -479 65 -90 120 -169 122 -176 3 -7 -30 -82 -74
-166 -85 -165 -279 -545 -383 -749 -35 -69 -64 -132 -66 -140 -3 -19 26 -50
46 -50 8 0 129 115 268 255 250 251 254 255 296 256 23 0 51 2 62 3 11 2 58 6
105 10 47 4 96 9 110 11 14 2 61 6 105 10 75 5 110 9 225 20 40 4 92 9 215 20
22 2 76 7 120 11 89 8 127 12 137 13 6 1 64 80 296 403 46 65 89 118 96 118 6
0 92 -27 191 -60 99 -33 187 -60 196 -60 23 0 48 26 45 45 -2 12 -174 227
-278 347 -20 23 -41 25 -118 9 -30 -6 -71 -13 -90 -15 -19 -3 -75 -12 -125
-21 -49 -9 -101 -18 -115 -20 -14 -2 -34 -6 -45 -8 -11 -3 -42 -8 -70 -11 -27
-4 -57 -9 -66 -12 -22 -6 -77 -15 -112 -17 -30 -2 -27 -10 -221 500 l-28 73
-86 47 c-48 25 -107 57 -132 71 -83 46 -144 79 -235 127 -49 26 -112 60 -140
75 -373 204 -557 300 -572 300 -10 0 -24 -5 -31 -12z m406 -282 c53 -29 142
-76 197 -106 55 -29 114 -60 130 -70 32 -18 104 -58 250 -135 50 -26 94 -51
98 -55 6 -6 -185 -246 -223 -280 -3 -3 -72 -85 -154 -183 -82 -98 -152 -175
-156 -170 -7 7 -159 412 -321 853 -28 74 -54 144 -58 155 -25 58 -51 129 -51
137 0 9 57 -20 288 -146z m-337 -233 c89 -31 110 -42 118 -63 28 -69 170 -458
176 -480 6 -23 5 -22 -13 5 -10 17 -72 104 -138 195 -66 91 -126 175 -134 187
-8 12 -43 60 -77 107 -35 47 -58 86 -52 86 6 0 60 -17 120 -37z m1274 -725
c107 -276 192 -504 190 -507 -5 -4 -751 304 -887 367 l-38 17 128 151 c70 83
190 225 266 317 77 92 142 165 144 162 2 -2 91 -230 197 -507z m664 15 c-30
-44 -198 -277 -322 -446 -35 -48 -52 -65 -58 -55 -14 25 -169 435 -169 446 0
7 3 12 8 12 4 0 113 18 242 40 129 23 253 43 275 46 22 4 42 8 44 10 2 2 6 2
9 0 2 -3 -11 -26 -29 -53z m211 -38 c34 -41 58 -75 53 -75 -4 0 -49 14 -100
31 l-91 31 31 44 c17 24 34 44 38 44 4 0 35 -34 69 -75z m-1590 -208 c19 -8
130 -55 245 -102 116 -48 224 -93 240 -100 17 -8 91 -39 165 -70 141 -60 161
-70 132 -71 -22 -1 -165 -13 -222 -19 -25 -2 -79 -7 -120 -10 -41 -4 -91 -8
-110 -10 -19 -2 -66 -6 -105 -10 -38 -3 -86 -8 -105 -10 -19 -2 -71 -7 -115
-11 -44 -3 -83 -8 -87 -11 -5 -2 -6 18 -3 44 2 26 7 82 9 123 13 175 21 270
25 278 0 2 4 1 9 -1 4 -2 23 -11 42 -20z m-155 -155 c-2 -10 -6 -63 -10 -118
-12 -187 1 -162 -157 -319 l-140 -140 110 215 c60 118 128 252 151 298 41 82
53 98 46 64z"/>
</g>
</svg>
